<?xml version="1.0" encoding="UTF-8"?>
<svg xmlns="http://www.w3.org/2000/svg" width="40px" height="40px"
     viewBox="0 0 40 40" version="1.1">
    <g id="surface1">
        <path style=" stroke:none;fill-rule:nonzero;fill:rgb(51.764709%,74.117649%,33.333334%);fill-opacity:1;"
              d="M 18.78125 15.917969 C 18.535156 15.910156 18.292969 15.898438 18.046875 15.894531 C 14.992188 15.894531 11.9375 15.894531 8.878906 15.894531 C 8.746094 15.894531 8.609375 15.894531 8.417969 15.894531 C 8.890625 12.097656 10.671875 9.210938 13.949219 7.25 C 13.519531 6.546875 13.101562 5.878906 12.691406 5.207031 C 12.457031 4.824219 12.21875 4.445312 12.003906 4.050781 C 11.828125 3.738281 11.898438 3.503906 12.175781 3.339844 C 12.441406 3.183594 12.699219 3.234375 12.882812 3.539062 C 13.488281 4.53125 14.089844 5.53125 14.667969 6.539062 C 14.816406 6.800781 14.9375 6.804688 15.191406 6.699219 C 17.902344 5.550781 20.671875 5.398438 23.488281 6.246094 C 23.9375 6.382812 24.382812 6.539062 24.816406 6.714844 C 25.027344 6.800781 25.136719 6.777344 25.253906 6.574219 C 25.789062 5.640625 26.339844 4.714844 26.886719 3.785156 C 26.953125 3.671875 27.019531 3.5625 27.09375 3.460938 C 27.273438 3.214844 27.511719 3.210938 27.746094 3.339844 C 27.980469 3.472656 28.082031 3.691406 27.949219 3.941406 C 27.667969 4.457031 27.375 4.964844 27.078125 5.472656 C 26.734375 6.058594 26.382812 6.640625 26.027344 7.246094 C 26.347656 7.449219 26.648438 7.625 26.933594 7.824219 C 29.195312 9.394531 30.734375 11.484375 31.445312 14.152344 C 31.585938 14.683594 31.621094 15.242188 31.683594 15.816406 C 31.640625 15.847656 31.621094 15.851562 31.601562 15.851562 C 28.410156 15.851562 25.21875 15.855469 22.027344 15.851562 C 21.9375 15.851562 21.84375 15.835938 21.695312 15.820312 C 22.035156 14.015625 22.371094 12.238281 22.707031 10.460938 C 22.601562 10.488281 22.558594 10.53125 22.523438 10.582031 C 21.402344 12.21875 20.28125 13.855469 19.15625 15.492188 C 19.050781 15.644531 18.90625 15.777344 18.78125 15.917969 M 24.417969 12.480469 C 24.9375 12.8125 25.445312 12.792969 25.855469 12.429688 C 26.230469 12.09375 26.347656 11.523438 26.113281 11.089844 C 25.886719 10.664062 25.523438 10.449219 25.042969 10.472656 C 24.578125 10.496094 24.234375 10.742188 24.0625 11.175781 C 23.875 11.664062 23.996094 12.09375 24.417969 12.480469 M 14.769531 10.507812 C 14.199219 10.675781 13.847656 11.117188 13.878906 11.636719 C 13.90625 12.160156 14.289062 12.605469 14.789062 12.6875 C 15.253906 12.765625 15.640625 12.617188 15.910156 12.238281 C 16.171875 11.867188 16.195312 11.457031 15.976562 11.058594 C 15.730469 10.609375 15.324219 10.4375 14.769531 10.507812 Z M 14.769531 10.507812 "/>
        <path style=" stroke:none;fill-rule:nonzero;fill:rgb(51.764709%,74.117649%,33.333334%);fill-opacity:1;"
              d="M 20.824219 31.058594 C 20.570312 31.058594 20.316406 31.058594 20.042969 31.058594 C 19.992188 31.546875 19.949219 32.003906 19.890625 32.457031 C 19.828125 32.988281 19.613281 33.1875 19.078125 33.203125 C 18.265625 33.226562 17.453125 33.246094 16.640625 33.246094 C 15.984375 33.25 15.785156 33.054688 15.738281 32.398438 C 15.683594 31.707031 15.652344 31.011719 15.589844 30.324219 C 15.578125 30.207031 15.476562 30.050781 15.371094 29.996094 C 14.699219 29.628906 14.003906 29.296875 13.335938 28.917969 C 13.109375 28.789062 12.980469 28.8125 12.785156 28.96875 C 12.371094 29.304688 11.9375 29.617188 11.5 29.925781 C 11.136719 30.179688 10.855469 30.171875 10.515625 29.875 C 9.625 29.101562 8.816406 28.253906 8.128906 27.292969 C 7.917969 27 7.953125 26.707031 8.164062 26.4375 C 8.539062 25.957031 8.910156 25.472656 9.308594 25.015625 C 9.488281 24.808594 9.507812 24.65625 9.386719 24.398438 C 9.078125 23.742188 8.8125 23.066406 8.554688 22.390625 C 8.488281 22.21875 8.414062 22.132812 8.234375 22.097656 C 7.648438 21.980469 7.0625 21.855469 6.484375 21.714844 C 5.953125 21.585938 5.789062 21.378906 5.785156 20.835938 C 5.777344 19.886719 5.78125 18.9375 5.789062 17.984375 C 5.792969 17.445312 5.96875 17.238281 6.511719 17.148438 C 7.152344 17.042969 7.800781 16.960938 8.460938 16.863281 C 8.460938 16.640625 8.460938 16.429688 8.460938 16.160156 C 11.851562 16.160156 15.21875 16.160156 18.613281 16.183594 C 18.613281 16.261719 18.589844 16.324219 18.554688 16.375 C 17.171875 18.394531 15.789062 20.410156 14.410156 22.425781 C 14.324219 22.550781 14.25 22.6875 14.132812 22.886719 C 15.367188 22.886719 16.523438 22.886719 17.71875 22.886719 C 17.234375 25.667969 16.761719 28.402344 16.285156 31.136719 C 16.3125 31.144531 16.34375 31.15625 16.371094 31.167969 C 17.832031 28.867188 19.289062 26.566406 20.75 24.265625 C 20.773438 24.277344 20.800781 24.289062 20.824219 24.304688 C 20.824219 26.554688 20.824219 28.808594 20.824219 31.058594 Z M 20.824219 31.058594 "/>
        <path style=" stroke:none;fill-rule:nonzero;fill:rgb(23.921569%,29.411766%,32.156864%);fill-opacity:1;"
              d="M 20.824219 31.089844 C 20.824219 28.808594 20.824219 26.554688 20.824219 24.304688 C 20.800781 24.289062 20.773438 24.277344 20.75 24.265625 C 19.289062 26.566406 17.832031 28.867188 16.371094 31.167969 C 16.34375 31.15625 16.3125 31.144531 16.285156 31.136719 C 16.761719 28.402344 17.234375 25.667969 17.71875 22.886719 C 16.523438 22.886719 15.367188 22.886719 14.132812 22.886719 C 14.25 22.6875 14.324219 22.550781 14.410156 22.425781 C 15.789062 20.410156 17.171875 18.394531 18.554688 16.375 C 18.589844 16.324219 18.613281 16.261719 18.644531 16.183594 C 18.691406 16.097656 18.734375 16.027344 18.78125 15.941406 C 18.90625 15.777344 19.050781 15.644531 19.15625 15.492188 C 20.28125 13.855469 21.402344 12.21875 22.523438 10.582031 C 22.558594 10.53125 22.601562 10.488281 22.707031 10.460938 C 22.371094 12.238281 22.035156 14.015625 21.695312 15.820312 C 21.84375 15.835938 21.9375 15.851562 22.027344 15.851562 C 25.21875 15.855469 28.410156 15.851562 31.601562 15.851562 C 31.621094 15.851562 31.640625 15.847656 31.691406 15.839844 C 31.996094 15.855469 32.273438 15.890625 32.546875 15.894531 C 33.039062 15.902344 33.53125 15.890625 34.023438 15.898438 C 34.996094 15.914062 35.574219 16.492188 35.574219 17.46875 C 35.578125 20.300781 35.578125 23.132812 35.578125 25.960938 C 35.578125 28.140625 35.578125 30.320312 35.582031 32.5 C 35.582031 33.074219 35.460938 33.605469 34.941406 33.921875 C 34.679688 34.082031 34.351562 34.210938 34.050781 34.210938 C 30.128906 34.230469 26.210938 34.226562 22.289062 34.21875 C 21.429688 34.21875 20.851562 33.625 20.832031 32.757812 C 20.824219 32.214844 20.828125 31.667969 20.824219 31.089844 M 26.570312 33.007812 C 28.898438 33.007812 31.226562 33.011719 33.554688 33.007812 C 34.242188 33.007812 34.433594 32.816406 34.433594 32.136719 C 34.433594 29.203125 34.433594 26.265625 34.429688 23.328125 C 34.429688 22.714844 34.273438 22.554688 33.652344 22.554688 C 30.03125 22.550781 26.414062 22.550781 22.792969 22.550781 C 22.109375 22.550781 21.925781 22.730469 21.925781 23.429688 C 21.921875 26.332031 21.921875 29.238281 21.921875 32.140625 C 21.921875 32.789062 22.136719 33.003906 22.792969 33.003906 C 24.03125 33.011719 25.269531 33.007812 26.570312 33.007812 M 19.039062 25.289062 C 20.097656 23.515625 21.152344 21.742188 22.265625 19.875 C 21.410156 19.875 20.660156 19.875 19.878906 19.875 C 20.308594 18.015625 20.726562 16.222656 21.140625 14.429688 C 21.121094 14.421875 21.101562 14.410156 21.082031 14.402344 C 19.386719 16.886719 17.6875 19.367188 15.953125 21.902344 C 16.121094 21.914062 16.230469 21.925781 16.34375 21.925781 C 17.082031 21.925781 17.816406 21.925781 18.554688 21.925781 C 18.925781 21.925781 18.949219 21.960938 18.875 22.308594 C 18.566406 23.746094 18.257812 25.1875 17.957031 26.628906 C 17.921875 26.785156 17.90625 26.941406 17.882812 27.097656 C 17.90625 27.101562 17.933594 27.109375 17.957031 27.113281 C 18.308594 26.519531 18.664062 25.921875 19.039062 25.289062 M 33.714844 19.398438 C 33.601562 19.351562 33.539062 19.300781 33.683594 19.214844 C 34.054688 18.992188 34.15625 18.644531 34.085938 18.25 C 34.015625 17.847656 33.710938 17.621094 33.355469 17.574219 C 32.6875 17.492188 32.007812 17.488281 31.332031 17.449219 C 31.332031 18.785156 31.332031 20.035156 31.332031 21.25 C 32.023438 21.25 32.683594 21.289062 33.339844 21.238281 C 33.828125 21.203125 34.148438 20.863281 34.230469 20.441406 C 34.320312 20.003906 34.175781 19.699219 33.714844 19.398438 M 30.347656 20.699219 C 30.402344 20.617188 30.457031 20.542969 30.507812 20.460938 C 31.105469 19.453125 30.707031 18.074219 29.6875 17.660156 C 28.964844 17.367188 28.203125 17.511719 27.476562 17.472656 C 27.449219 17.546875 27.433594 17.566406 27.433594 17.585938 C 27.433594 18.75 27.433594 19.910156 27.429688 21.070312 C 27.425781 21.238281 27.492188 21.304688 27.652344 21.300781 C 28.027344 21.300781 28.398438 21.296875 28.773438 21.300781 C 29.359375 21.308594 29.886719 21.148438 30.347656 20.699219 M 23.28125 20.746094 C 23.214844 20.917969 23.152344 21.089844 23.074219 21.296875 C 23.226562 21.296875 23.335938 21.28125 23.441406 21.296875 C 23.816406 21.355469 24.074219 21.257812 24.140625 20.835938 C 24.175781 20.625 24.304688 20.546875 24.527344 20.566406 C 24.804688 20.59375 25.085938 20.601562 25.359375 20.566406 C 25.703125 20.523438 25.871094 20.65625 25.953125 20.976562 C 25.980469 21.09375 26.082031 21.265625 26.171875 21.277344 C 26.425781 21.320312 26.691406 21.292969 26.980469 21.292969 C 26.472656 20.046875 25.992188 18.851562 25.5 17.664062 C 25.367188 17.335938 25.074219 17.523438 24.851562 17.476562 C 24.664062 17.4375 24.597656 17.558594 24.535156 17.710938 C 24.128906 18.710938 23.714844 19.703125 23.28125 20.746094 Z M 23.28125 20.746094 "/>
        <path style=" stroke:none;fill-rule:nonzero;fill:rgb(50.196081%,74.117649%,32.941177%);fill-opacity:1;"
              d="M 19.027344 25.308594 C 18.664062 25.921875 18.308594 26.519531 17.957031 27.113281 C 17.933594 27.109375 17.90625 27.101562 17.882812 27.097656 C 17.90625 26.941406 17.921875 26.785156 17.957031 26.628906 C 18.257812 25.1875 18.566406 23.746094 18.875 22.308594 C 18.949219 21.960938 18.925781 21.925781 18.554688 21.925781 C 17.816406 21.925781 17.082031 21.925781 16.34375 21.925781 C 16.230469 21.925781 16.121094 21.914062 15.953125 21.902344 C 17.6875 19.367188 19.386719 16.886719 21.082031 14.402344 C 21.101562 14.410156 21.121094 14.421875 21.140625 14.429688 C 20.726562 16.222656 20.308594 18.015625 19.878906 19.875 C 20.660156 19.875 21.410156 19.875 22.265625 19.875 C 21.152344 21.742188 20.097656 23.515625 19.027344 25.308594 Z M 19.027344 25.308594 "/>
        <path style=" stroke:none;fill-rule:nonzero;fill:rgb(96.862745%,97.254902%,97.254902%);fill-opacity:1;"
              d="M 30.332031 20.714844 C 29.886719 21.148438 29.359375 21.308594 28.773438 21.300781 C 28.398438 21.296875 28.027344 21.300781 27.652344 21.300781 C 27.492188 21.304688 27.425781 21.238281 27.429688 21.070312 C 27.433594 19.910156 27.433594 18.75 27.433594 17.585938 C 27.433594 17.566406 27.449219 17.546875 27.476562 17.472656 C 28.203125 17.511719 28.964844 17.367188 29.6875 17.660156 C 30.707031 18.074219 31.105469 19.453125 30.507812 20.460938 C 30.457031 20.542969 30.402344 20.617188 30.332031 20.714844 M 28.277344 19.457031 C 28.277344 19.800781 28.277344 20.148438 28.277344 20.527344 C 28.582031 20.5 28.839844 20.5 29.089844 20.457031 C 29.601562 20.371094 29.894531 20.03125 29.929688 19.515625 C 29.984375 18.695312 29.464844 18.238281 28.535156 18.269531 C 28.34375 18.273438 28.265625 18.328125 28.273438 18.527344 C 28.289062 18.8125 28.277344 19.101562 28.277344 19.457031 Z M 28.277344 19.457031 "/>
        <path style=" stroke:none;fill-rule:nonzero;fill:rgb(23.921569%,30.19608%,31.764707%);fill-opacity:1;"
              d="M 29.617188 27.0625 C 30.585938 27.0625 31.527344 27.0625 32.46875 27.0625 C 32.605469 27.066406 32.742188 27.089844 32.882812 27.101562 C 33.160156 27.121094 33.261719 27.304688 33.285156 27.550781 C 33.3125 27.8125 33.222656 28.015625 32.953125 28.097656 C 32.851562 28.125 32.746094 28.140625 32.640625 28.140625 C 30.683594 28.140625 28.730469 28.140625 26.777344 28.140625 C 26.535156 28.140625 26.300781 28.136719 26.167969 27.878906 C 25.960938 27.472656 26.226562 27.070312 26.730469 27.066406 C 27.683594 27.058594 28.632812 27.0625 29.617188 27.0625 Z M 29.617188 27.0625 "/>
        <path style=" stroke:none;fill-rule:nonzero;fill:rgb(23.921569%,30.19608%,31.764707%);fill-opacity:1;"
              d="M 32.308594 25.484375 C 30.511719 25.476562 28.742188 25.472656 26.96875 25.46875 C 26.832031 25.464844 26.691406 25.46875 26.554688 25.457031 C 26.277344 25.425781 26.089844 25.214844 26.101562 24.933594 C 26.109375 24.660156 26.246094 24.46875 26.53125 24.417969 C 26.613281 24.40625 26.699219 24.40625 26.785156 24.40625 C 28.683594 24.402344 30.582031 24.398438 32.480469 24.394531 C 33.015625 24.390625 33.226562 24.53125 33.234375 24.914062 C 33.242188 25.261719 33.105469 25.421875 32.753906 25.464844 C 32.613281 25.480469 32.476562 25.476562 32.308594 25.484375 Z M 32.308594 25.484375 "/>
        <path style=" stroke:none;fill-rule:nonzero;fill:rgb(23.921569%,30.19608%,31.764707%);fill-opacity:1;"
              d="M 30.382812 30.910156 C 29.179688 30.90625 28.003906 30.902344 26.828125 30.898438 C 26.722656 30.898438 26.589844 30.929688 26.515625 30.878906 C 26.363281 30.769531 26.15625 30.632812 26.128906 30.480469 C 26.097656 30.324219 26.226562 30.105469 26.351562 29.972656 C 26.433594 29.882812 26.625 29.871094 26.769531 29.871094 C 28.605469 29.863281 30.441406 29.863281 32.277344 29.859375 C 32.4375 29.859375 32.597656 29.863281 32.757812 29.878906 C 33.078125 29.914062 33.246094 30.09375 33.242188 30.402344 C 33.242188 30.667969 33.027344 30.890625 32.722656 30.894531 C 31.953125 30.90625 31.183594 30.90625 30.382812 30.910156 Z M 30.382812 30.910156 "/>
        <path style=" stroke:none;fill-rule:nonzero;fill:rgb(52.549022%,76.47059%,33.725491%);fill-opacity:1;"
              d="M 24.472656 26.796875 C 25.230469 26.835938 25.589844 27.527344 25.183594 28.144531 C 25.09375 28.28125 24.902344 28.417969 24.75 28.425781 C 24.339844 28.457031 23.921875 28.449219 23.515625 28.390625 C 23.371094 28.371094 23.175781 28.175781 23.140625 28.03125 C 23.078125 27.769531 23.085938 27.480469 23.128906 27.210938 C 23.175781 26.933594 23.417969 26.828125 23.679688 26.808594 C 23.933594 26.789062 24.1875 26.796875 24.472656 26.796875 Z M 24.472656 26.796875 "/>
        <path style=" stroke:none;fill-rule:nonzero;fill:rgb(52.549022%,76.47059%,33.725491%);fill-opacity:1;"
              d="M 25.128906 29.742188 C 25.203125 30.027344 25.308594 30.292969 25.304688 30.554688 C 25.300781 30.9375 25.019531 31.1875 24.644531 31.203125 C 24.335938 31.21875 24.023438 31.214844 23.714844 31.191406 C 23.328125 31.164062 23.15625 30.988281 23.085938 30.59375 C 23.007812 30.164062 23.132812 29.734375 23.4375 29.648438 C 23.992188 29.488281 24.566406 29.445312 25.128906 29.742188 Z M 25.128906 29.742188 "/>
        <path style=" stroke:none;fill-rule:nonzero;fill:rgb(52.549022%,76.47059%,33.725491%);fill-opacity:1;"
              d="M 23.804688 25.699219 C 23.257812 25.632812 23.050781 25.382812 23.066406 24.839844 C 23.085938 24.316406 23.339844 24.054688 23.867188 24.050781 C 24.1875 24.046875 24.511719 24.050781 24.824219 24.101562 C 24.964844 24.125 25.140625 24.25 25.210938 24.375 C 25.582031 25.039062 25.195312 25.691406 24.441406 25.703125 C 24.242188 25.703125 24.039062 25.699219 23.804688 25.699219 Z M 23.804688 25.699219 "/>
        <path style=" stroke:none;fill-rule:nonzero;fill:rgb(22.745098%,29.019609%,31.764707%);fill-opacity:1;"
              d="M 32.378906 20.582031 C 32.179688 20.601562 32.09375 20.542969 32.105469 20.355469 C 32.117188 20.132812 32.109375 19.910156 32.109375 19.628906 C 32.425781 19.648438 32.71875 19.644531 33.007812 19.683594 C 33.242188 19.71875 33.382812 19.890625 33.378906 20.128906 C 33.375 20.359375 33.242188 20.507812 33.011719 20.539062 C 32.8125 20.5625 32.609375 20.566406 32.378906 20.582031 Z M 32.378906 20.582031 "/>
        <path style=" stroke:none;fill-rule:nonzero;fill:rgb(22.745098%,29.019609%,31.764707%);fill-opacity:1;"
              d="M 33.148438 18.851562 C 32.808594 18.9375 32.484375 19.003906 32.125 19.078125 C 32.125 18.738281 32.125 18.496094 32.125 18.214844 C 32.382812 18.214844 32.636719 18.1875 32.882812 18.222656 C 33.265625 18.277344 33.347656 18.476562 33.148438 18.851562 Z M 33.148438 18.851562 "/>
        <path style=" stroke:none;fill-rule:nonzero;fill:rgb(22.745098%,29.019609%,31.764707%);fill-opacity:1;"
              d="M 28.277344 19.421875 C 28.277344 19.101562 28.289062 18.8125 28.273438 18.527344 C 28.265625 18.328125 28.34375 18.273438 28.535156 18.269531 C 29.464844 18.238281 29.984375 18.695312 29.929688 19.515625 C 29.894531 20.03125 29.601562 20.371094 29.089844 20.457031 C 28.839844 20.5 28.582031 20.5 28.277344 20.527344 C 28.277344 20.148438 28.277344 19.800781 28.277344 19.421875 Z M 28.277344 19.421875 "/>
        <path style=" stroke:none;fill-rule:nonzero;fill:rgb(22.745098%,29.019609%,31.764707%);fill-opacity:1;"
              d="M 24.574219 19.710938 C 24.722656 19.335938 24.859375 18.980469 25.03125 18.535156 C 25.214844 19.023438 25.363281 19.414062 25.53125 19.851562 C 25.199219 19.851562 24.914062 19.855469 24.632812 19.847656 C 24.609375 19.847656 24.585938 19.773438 24.574219 19.710938 Z M 24.574219 19.710938 "/>
    </g>
</svg>
